<?xml version="1.0" encoding="utf-8"?>
<!-- Generator: Adobe Illustrator 14.0.0, SVG Export Plug-In . SVG Version: 6.00 Build 43363)  -->
<!DOCTYPE svg PUBLIC "-//W3C//DTD SVG 1.1//EN" "http://www.w3.org/Graphics/SVG/1.1/DTD/svg11.dtd">
<svg version="1.1" id="Capa_1" xmlns="http://www.w3.org/2000/svg" xmlns:xlink="http://www.w3.org/1999/xlink" x="0px" y="0px"
	 width="187px" height="409.89px" viewBox="0 0 187 409.89" enable-background="new 0 0 187 409.89" xml:space="preserve">
<g>
	<g>
		<g>
			<g>
				<path fill="none" stroke="#000000" stroke-linecap="round" stroke-linejoin="round" d="M90.564,31.5c0.4-3.1,0-6-1-8.9
					c-1.1-2.9-2.5-5.6-4-8.1c-5.5-6.6-12.5-9.4-21-8c-7.3,1.6-13.2,5.3-17.7,10.9c-4.6,5.5-6,11.9-4.3,19.1
					c2.1,4.9,4.9,8.9,8.3,12.2c3.3,3.4,6.6,6.9,9.7,10.8c1.4,1.6,1.8,3.6,1.3,6c-0.7,2.4-1.8,4.4-3.3,6c-4.6,1.6-9.4,2.4-14.2,2.2
					c-4.9-0.1-9.2,1.2-12.8,3.8c-10.5,8.4-20.5,16.6-30,25c-0.2,4.4,1.4,7.1,4.5,8.1c3.2,0.8,6.8,1.3,10.9,1.5
					c4.2,0.1,7.7,1.3,10.6,3.4c-3,9.4-3,18.6,0,28c1.1,2.2,2.9,3.2,5.1,2.8l5.9-0.8c2.8,1.2,4.5,3.7,5.1,7.6
					c0.7,3.8,1.7,7.6,2.9,11.4c-4.5,5.1-7.7,10.9-9.5,17.5s-2,13.4-0.5,20.5l8.4,36.8c2.7,12.1,6.2,24.2,10.6,36.2
					c2.9,7,4.6,14.4,5.5,22.1l2.5,22.9c1.5,7.8,3.5,16.1,6,25c0.8,1.9,2.2,3.4,4.1,4.5c1.9,1.1,2.6,2.6,1.9,4.5
					c-1.5,2.6-3.8,5-6.7,7c-3,2.1-5.4,4.3-7.3,6.6c-1.8,2.3-1.8,5.1,0,8.4c1.1,1.9,3.1,2.8,5.8,2.8c2.8,0.1,5.5-0.2,8.2-0.8
					c2.8-1.1,5.1-2.7,6.8-4.8c1.8-2.1,3.9-4.1,6.2-6.2c2.1-0.9,4.2-1.6,6.1-2.3c2-0.6,3.3-1.8,3.9-3.7c1.3-3.5,1.4-7,0.3-10.5
					l-3.3-10.5c-2.1-11.3-4.4-22.3-6.9-33c-2.4-10.7-4.5-21.7-6.1-33c-1.2-8.5-2.6-16.8-4.2-24.9c-1.5-8.1-2.1-16.2-1.8-24.1
					c0.2-2.2,1.1-2.6,2.8-1.2l4.2,4.2c6.9,13,13.1,26.2,18.6,39.6l16.4,40.4c2.5,8.2,4.5,16.7,5.8,25.6c1.5,8.9,5.1,16.6,11.2,23.4
					c1.1,0.8,2.7,0.9,4.6,0.4l5.4-0.4c0.6,0.4,1.2,0.6,1.8,0.6c0.8,0,1.1,0.5,1.2,1.4l-0.2,5c-0.1,1.8,0.3,3.4,1.2,5
					c1.7,2.4,3.8,4.6,6.5,6.6s4.8,4.5,6.5,7.4c3.2,4.8,7.8,8.1,14,10c3.2-0.2,5.8-0.9,8-2c2.3-1.7,2.9-3.9,2.1-6.7
					c-0.8-2.7-1.8-5.2-3.1-7.3l-5.9-6.6c-1.9-2-3.6-4.5-5.1-7.4c-1.7-2-3.6-3.8-5.7-5.5c-2.2-1.7-3.6-3.5-4.3-5.5
					c-2.8-9-5.2-18.2-7.2-27.4c-1.9-9.1-4.5-18.1-7.8-26.6l-7-9c-0.9-3.5-1.4-7-1.5-10.5c-0.2-3.5-0.7-7-1.5-10.5
					c-0.7-2.5-1.7-4.8-3-7.2c-1.3-2.2-2.3-4.9-3-7.8c-3.2-11.8-6.4-23.3-9.7-34.5c-3.2-11.2-5.6-22.7-7.3-34.5
					c3.6-6.4,7.4-12.6,11.3-18.5c4-5.9,7.6-12.1,10.7-18.5c1.3-4.2,1.7-8.8,1-14l-2.2-4.6c-0.9-1.7-1.1-3.5-0.8-5.4l1.8-3
					c0.5-1,0.6-2,0.2-3c-3.2-4.1-4.8-8.7-5-13.7c-0.2-5.1-1.2-9.8-3-14.3l-2.7-6.3c-0.7-2.1-1.8-3.6-3.3-4.7
					c-4-2.9-8.2-5.1-12.7-6.8l-13.3-5.2c-1.5-0.4-3-0.2-4.5,0.4c-1.5,0.5-3,0.4-4.5-0.4c-3.8-2.5-5.2-5.5-4-9
					c0.3-4.4,1.3-8.8,3.1-13C88.564,40.3,89.864,35.9,90.564,31.5"/>
			</g>
		</g>
	</g>
</g>
</svg>
